<svg xmlns="http://www.w3.org/2000/svg" viewBox="0 0 32 32">
  <defs>
    <linearGradient id="bronze" x1="0" y1="0" x2="1" y2="1">
      <stop stop-color="#684135"/>
      <stop offset="1" stop-color="#281918"/>
    </linearGradient>
  </defs>
  <circle cx="16" cy="16" r="15" fill="url(#bronze)" stroke="#9d784c"/>
  <circle cx="16" cy="16" r="12.9" fill="none" stroke="#301e1d" stroke-width="1.8"/>
  <path fill="#e8c58a" d="M16 6C13.8 9.9 6.8 13.5 6.8 18.1c0 2.9 2 4.7 4.5 4.7 2.3 0 3.8-1.4 4.2-3.1-.2 3-1.1 5.1-3.2 7.3h7.4c-2.1-2.2-3-4.3-3.2-7.3.4 1.7 1.9 3.1 4.2 3.1 2.5 0 4.5-1.8 4.5-4.7C25.2 13.5 18.2 9.9 16 6Z"/>
</svg>
